<!-- Generated by IcoMoon.io -->
<svg version="1.1" xmlns="http://www.w3.org/2000/svg" width="976" height="1024" viewBox="0 0 976 1024">
<title>twitter</title>
<g id="icomoon-ignore">
</g>
<path d="M151.111 995.295c0.358 0.010 0.71 0.086 1.036 0.226s0.619 0.341 0.863 0.591l4.9 5.137c-3.804 4.156-8.505 7.482-13.782 9.747-6.18 2.472-12.84 3.665-19.54 3.501-6.296 0.124-12.551-0.988-18.376-3.267-5.255-2.093-9.975-5.239-13.843-9.223-3.947-4.132-6.988-8.973-8.943-14.241-2.141-5.873-3.198-12.052-3.124-18.268-0.087-6.256 1.056-12.474 3.369-18.327 2.14-5.301 5.367-10.142 9.494-14.243 4.183-4.017 9.186-7.175 14.701-9.28 6.033-2.227 12.457-3.336 18.927-3.267 6.010-0.141 11.988 0.874 17.58 2.977 4.851 2.005 9.306 4.789 13.169 8.23l-4.104 5.487c-0.283 0.386-0.636 0.722-1.041 0.991-0.484 0.317-1.069 0.462-1.654 0.41-0.636-0.043-1.249-0.243-1.776-0.583l-2.205-1.46-3.063-1.867c-1.322-0.693-2.693-1.298-4.104-1.81-1.817-0.619-3.68-1.107-5.574-1.46-2.404-0.422-4.845-0.617-7.289-0.583-4.659-0.055-9.282 0.779-13.598 2.45-4.025 1.55-7.658 3.898-10.658 6.889-3.054 3.179-5.408 6.911-6.922 10.971-1.725 4.646-2.575 9.547-2.511 14.477-0.074 5.003 0.776 9.983 2.511 14.707 1.495 4.027 3.805 7.735 6.799 10.914 2.806 2.965 6.283 5.28 10.168 6.77 3.998 1.581 8.29 2.374 12.618 2.336 2.5 0.036 4.999-0.119 7.473-0.467 4.039-0.472 7.914-1.807 11.332-3.91 1.715-1.079 3.333-2.289 4.839-3.62 0.63-0.572 1.458-0.905 2.328-0.934z"></path>
<path d="M292.604 969.485c0.076 6.194-1.045 12.345-3.308 18.151-1.996 5.265-5.141 10.069-9.226 14.093-4.086 4.025-9.021 7.178-14.479 9.252-11.993 4.358-25.25 4.358-37.241 0-5.423-2.108-10.325-5.268-14.394-9.28-4.083-4.096-7.251-8.94-9.31-14.238-4.412-11.757-4.412-24.605 0-36.362 2.089-5.301 5.253-10.159 9.31-14.298 4.104-3.886 9.004-6.925 14.394-8.928 11.977-4.437 25.265-4.437 37.241 0 5.441 2.105 10.364 5.265 14.455 9.278 4.034 4.058 7.178 8.84 9.249 14.065 2.269 5.846 3.391 12.038 3.308 18.268zM279.743 969.485c0.095-4.953-0.691-9.888-2.329-14.591-1.372-4.027-3.603-7.744-6.554-10.912-2.872-3.001-6.408-5.351-10.352-6.887-8.714-3.191-18.358-3.191-27.073 0-3.944 1.536-7.48 3.886-10.352 6.887-2.991 3.151-5.246 6.87-6.615 10.912-3.117 9.502-3.117 19.682 0 29.182 1.383 4.039 3.636 7.756 6.615 10.914 2.876 2.982 6.412 5.313 10.352 6.827 8.729 3.11 18.345 3.11 27.073 0 3.941-1.515 7.478-3.846 10.352-6.827 2.939-3.177 5.168-6.889 6.554-10.914 1.646-4.701 2.431-9.635 2.329-14.591z"></path>
<path d="M389.139 984.783l1.286 3.267c0.491-1.167 0.919-2.217 1.41-3.267 0.467-1.098 0.998-2.169 1.593-3.21l31.299-54.21c0.614-0.934 1.165-1.517 1.777-1.693 0.833-0.241 1.705-0.341 2.574-0.291h9.247v88.174h-10.964v-64.833c0-0.817 0-1.75 0-2.741-0.057-1.012-0.057-2.024 0-3.036l-31.482 54.972c-0.4 0.822-1.041 1.519-1.843 2.005-0.805 0.486-1.738 0.743-2.691 0.736h-1.777c-0.953 0.014-1.891-0.238-2.696-0.726s-1.443-1.188-1.836-2.015l-32.404-55.322c0 1.050 0 2.103 0 3.153s0 1.984 0 2.801v64.831h-10.595v-87.997h9.247c0.869-0.050 1.741 0.050 2.574 0.291 0.76 0.36 1.365 0.957 1.715 1.693l31.975 54.27c0.626 1.003 1.16 2.058 1.591 3.151z"></path>
<path d="M506.93 980.401v33.030h-12.252v-88.057h27.319c5.158-0.093 10.3 0.555 15.253 1.927 3.965 1.069 7.642 2.941 10.781 5.484 2.72 2.386 4.818 5.341 6.125 8.637 1.446 3.591 2.153 7.416 2.081 11.262 0.055 3.863-0.717 7.694-2.265 11.262-1.474 3.379-3.736 6.392-6.616 8.811-3.143 2.65-6.837 4.639-10.842 5.837-4.768 1.45-9.757 2.141-14.762 2.041l-14.822-0.233zM506.93 970.95h14.822c3.22 0.038 6.425-0.414 9.495-1.343 2.531-0.812 4.865-2.1 6.861-3.794 1.841-1.615 3.265-3.61 4.165-5.834 1.003-2.353 1.503-4.872 1.469-7.411 0.143-2.448-0.276-4.896-1.229-7.173-0.953-2.279-2.412-4.329-4.284-6.015-4.679-3.482-10.557-5.168-16.477-4.727h-14.822v36.297z"></path>
<path d="M671.577 1013.55h-9.678c-0.972 0.033-1.924-0.255-2.696-0.819-0.695-0.548-1.241-1.248-1.593-2.041l-8.33-21.302h-41.834l-8.637 21.302c-0.317 0.779-0.845 1.462-1.531 1.984-0.779 0.598-1.757 0.907-2.758 0.876h-9.678l36.752-88.183h12.74l37.243 88.183zM610.937 980.809h34.547l-14.579-35.892c-1.114-2.698-2.036-5.468-2.758-8.287l-1.407 4.61c-0.429 1.403-0.919 2.686-1.348 3.736l-14.455 35.833z"></path>
<path d="M724.499 925.777c0.733 0.383 1.362 0.922 1.838 1.576l53.596 66.472c0-1.053 0-2.103 0-3.093 0-0.993 0-1.984 0-2.92v-62.445h10.964v88.183h-6.125c-0.869 0.024-1.731-0.155-2.51-0.526-0.757-0.419-1.422-0.974-1.96-1.634l-53.536-66.412c0.060 1.010 0.060 2.022 0 3.034 0 0.993 0 1.867 0 2.684v62.855h-10.964v-88.183h6.494c0.757-0.019 1.51 0.119 2.203 0.41z"></path>
<path d="M881.185 978.477v35.016h-12.252v-35.016l-33.873-53.105h10.966c0.943-0.055 1.877 0.214 2.634 0.757 0.667 0.567 1.226 1.238 1.653 1.984l21.194 34.259c0.857 1.457 1.593 2.801 2.205 4.084s1.103 2.51 1.531 3.736l1.593-3.794c0.593-1.388 1.288-2.734 2.081-4.027l20.887-34.492c0.441-0.688 0.976-1.317 1.593-1.867 0.726-0.605 1.669-0.919 2.634-0.874h11.088l-33.935 53.338z"></path>
<path d="M383.076 777.39c5.33 0.641 10.719 1.167 16.17 1.634 82.649-35.226 152.566-92.879 201.014-165.752 48.447-72.875 73.276-157.736 71.38-243.981l-91.084-86.778c18.52 91.822 9.857 186.742-25.019 274.141-34.878 87.4-94.591 163.828-172.461 220.736z"></path>
<path d="M350.551 773.353l2.45 0.467c83.211-56.706 146.653-135.892 182.12-227.318 35.469-91.424 41.331-190.886 16.829-285.52l-129.734-123.598c52.474 101.597 73.595 215.296 60.909 327.879-12.688 112.583-58.661 219.422-132.575 308.091z"></path>
<path d="M790.53 471.185c-22.040 94.763-75.571 180.224-152.643 243.7-22.509 18.639-46.787 35.245-72.523 49.602 62.759-17.572 120.441-48.645 168.603-90.815 48.161-42.172 85.516-94.318 109.18-152.416l-52.617-50.071z"></path>
<path d="M769.888 457.233l-74.914-71.373c-1.431 81.372-25.712 160.894-70.318 230.3-44.606 69.408-107.908 126.164-183.329 164.376h0.367c16.808-0.007 33.599-0.962 50.29-2.86 70.485-27.41 132.749-71.016 181.241-126.931s81.701-122.397 96.663-193.512z"></path>
<path d="M361.393 85.261l-89.369-85.261c-79.892 29.413-148.602 81.121-197.138 148.355s-74.637 146.862-74.886 228.463v0c0.299 90.167 32.154 177.662 90.521 248.639s139.913 121.382 231.732 143.236c81.965-95.144 129.955-212.709 136.992-335.612 7.039-122.904-27.238-244.745-97.852-347.819z"></path>
<path d="M976.372 444.106c-0.324-106.977-45.073-209.486-124.471-285.131s-186.992-118.278-299.277-118.586c-51.886-0.051-103.331 9.071-151.723 26.903l547.173 521.307c18.734-46.082 28.331-95.077 28.298-144.494z"></path>
</svg>
