<svg width="0" height="0" class="hidden">
<symbol xmlns="http://www.w3.org/2000/svg" viewBox="0 0 1024 1024" id="twitter">
    <title></title>
    <path d="M1024 194.496c-38.077 16.704-78.659 27.776-120.96 33.152 43.52-25.984 76.739-66.816 92.349-116.032-40.571 24.192-85.371 41.28-133.12 50.816C823.741 121.408 768.829 96 708.925 96c-116.219 0-209.789 94.336-209.789 209.984 0 16.64 1.408 32.64 4.864 47.872-174.528-8.512-328.96-92.16-432.704-219.584-18.112 31.424-28.736 67.392-28.736 106.112 0 72.704 37.44 137.152 93.248 174.464-33.728-.64-66.816-10.432-94.848-25.856v2.304c0 102.016 72.768 186.752 168.192 206.269-17.088 4.675-35.712 6.912-55.04 6.912-13.44 0-27.008-.763-39.744-3.584 27.2 83.139 104.384 144.261 196.16 146.243-71.424 55.875-162.112 89.533-260.288 89.533-17.216 0-33.728-.763-50.24-2.877C92.992 893.763 203.2 928 322.048 928c386.304 0 597.504-320 597.504-597.376 0-9.28-.317-18.24-.768-27.136 41.667-29.568 76.672-66.496 105.216-108.992z"></path>
  </symbol>
  <symbol viewBox="0 0 70 70" fill="none" xmlns="http://www.w3.org/2000/svg" id="antenna">
    <path d="M67.316 48.339l-18.47-18.605 2.05-10.097a4.654 4.654 0 0 0 1.66.319h.014a4.723 4.723 0 1 0-4.394-3.14l-10.85 1.325L19.628.35a1.167 1.167 0 0 0-.824-.35 1.17 1.17 0 0 0-.817.34L14.68 3.63a1.167 1.167 0 0 0 0 1.65l1.78 1.805a32.687 32.687 0 0 0 5.511 38.638c.094.09.202.161.32.213a6.761 6.761 0 0 0-.114 1.197v13.534h-14A5.84 5.84 0 0 0 2.342 66.5v2.333c0 .645.523 1.167 1.167 1.167h53.667c.644 0 1.166-.522 1.166-1.167V66.5a5.84 5.84 0 0 0-5.833-5.833h-14v-5.998a32.88 32.88 0 0 0 6.669.7 32.484 32.484 0 0 0 15.4-3.901l1.79 1.8c.216.221.513.347.823.35.306-.002.6-.124.817-.34l3.308-3.29a1.167 1.167 0 0 0 0-1.65zM50.925 13.635a2.333 2.333 0 1 1 1.644 3.987h-.007a2.333 2.333 0 0 1-1.633-3.987h-.004zM48.178 21.3l-1.309 6.444-2.571-2.587 3.88-3.857zm-1.325-1.973l-4.2 4.176-3.25-3.267 7.45-.909zM52.509 63a3.5 3.5 0 0 1 3.5 3.5v1.167H4.676V66.5a3.5 3.5 0 0 1 3.5-3.5h44.333zm-16.333-4.667v2.334H24.509v-2.334h11.667zM24.509 56v-8.867c0-2.83 2.617-5.133 5.833-5.133 3.217 0 5.834 2.303 5.834 5.133V56H24.509zm14-3.71v-5.157c0-4.117-3.663-7.466-8.167-7.466a8.312 8.312 0 0 0-7.177 3.907A30.34 30.34 0 0 1 18.18 8.82l40.692 40.925a30.233 30.233 0 0 1-20.363 2.544zm24.695-1.496l-1.644-1.653L18.792 6.116l-1.65-1.655 1.65-1.645L36.15 20.272c.008 0 .013.015.02.021l28.69 28.856-1.656 1.645z" fill="#212121"></path>
    <path d="M30.353 44.333h-.01a3.5 3.5 0 1 0-.011 7h.01a3.5 3.5 0 1 0 .01-7zm.816 4.328a1.167 1.167 0 1 1-.827-1.994 1.167 1.167 0 0 1 .817 1.993h.01z" fill="#2196F3"></path>
  </symbol>
  <symbol viewBox="0 0 70 70" fill="none" xmlns="http://www.w3.org/2000/svg" id="astronaut">
    <path d="M69.943 9.896a1.168 1.168 0 0 0-.941-.793l-4.18-.608-1.87-3.787c-.391-.798-1.7-.798-2.091 0l-1.87 3.787-4.18.608a1.167 1.167 0 0 0-.648 1.99l3.026 2.948-.714 4.162c-.075.438.105.88.463 1.142.363.263.837.296 1.23.088l3.738-1.966 3.738 1.966a1.168 1.168 0 0 0 1.693-1.23l-.714-4.162 3.025-2.949a1.17 1.17 0 0 0 .295-1.196zM64.556 12.8c-.275.267-.4.655-.335 1.033l.417 2.437-2.188-1.15a1.164 1.164 0 0 0-1.088 0l-2.188 1.15.417-2.437a1.168 1.168 0 0 0-.334-1.033l-1.773-1.726 2.448-.356c.38-.055.708-.294.879-.639l1.094-2.216 1.094 2.216c.17.345.498.584.879.639l2.448.355-1.77 1.727zm-7.389 32.092h-2.333v2.334h2.333v-2.334zm0 4.668h-2.333v2.332h2.333V49.56zm2.333-2.334h-2.333v2.333H59.5v-2.333zm-4.666 0H52.5v2.333h2.334v-2.333zM49 57.726h-2.333v2.333H49v-2.333zm0 4.667h-2.333v2.333H49v-2.333zm2.334-2.333H49v2.333h2.334v-2.334zm-4.667 0h-2.334v2.333h2.334v-2.334zM35 53.06h-2.333v2.333H35v-2.334zm0 4.666h-2.333v2.333H35v-2.333zm2.333-2.334H35v2.334h2.333v-2.334zm-4.666 0h-2.334v2.334h2.334v-2.334zm-19.834-42H10.5v2.333h2.333v-2.333zm0 4.667H10.5v2.333h2.333V18.06zm2.333-2.334h-2.333v2.334h2.333v-2.334zm-4.666 0H8.166v2.334H10.5v-2.334z" fill="#2196F3"></path>
    <path d="M54.063 30.974a3.88 3.88 0 0 0-2.599-1.541 3.886 3.886 0 0 0-2.93.77l-2.74 2.097-.001.002-4.151 3.1-2.97-1.184c5.296-2.376 8.998-7.674 8.998-13.825 0-8.363-6.83-15.167-15.227-15.167S17.215 12.03 17.215 20.393c0 3.031.907 5.85 2.45 8.222l-6.046-.053h-.01c-.019 0-.034.01-.051.01a1.143 1.143 0 0 0-.34.069c-.028.01-.057.016-.084.029-.014.006-.028.007-.042.014L6.02 32.175c-.001 0-.003 0-.003.002l-4.141 1.991a.898.898 0 0 0-.138.077A3.895 3.895 0 0 0 .43 39.268a3.884 3.884 0 0 0 2.31 1.944 3.891 3.891 0 0 0 3.016-.281l3.036-1.614 4.952-2.558 2.968-.017L4.808 48.588c0 .002-.002.002-.003.003l-2.928 2.916a3.607 3.607 0 0 0-1.073 2.577 3.647 3.647 0 0 0 3.652 3.64c.936 0 1.869-.355 2.582-1.062l2.875-2.863 3.808-2.843 1.97 1.962-3.853 3.837-.004.002-2.928 2.917a3.608 3.608 0 0 0-1.073 2.576c0 .973.38 1.889 1.073 2.579a3.65 3.65 0 0 0 2.58 1.061c.935 0 1.87-.354 2.582-1.061l2.93-2.917 4.686-4.667.002-.003 2.21-2.188-.01-.008c.015-.014.035-.019.049-.034l11.3-12.377 7.593 1.08c.055.008.11.012.165.012.14 0 .277-.034.41-.084.038-.014.071-.033.108-.051.042-.021.086-.033.126-.06l7.029-4.666c.026-.018.04-.046.064-.065.028-.022.063-.031.089-.056l2.78-2.605a3.892 3.892 0 0 0 .465-5.166zM4.66 38.872a1.56 1.56 0 0 1-1.221.113 1.564 1.564 0 0 1-.465-2.755l2.874-1.383.692 2.022.29.85-2.17 1.153zm7.65-3.998l-3.387 1.75-.558-1.633-.402-1.174 4.434-2.189-.087 3.246zm33.03-14.482c0 2.009-.48 3.904-1.31 5.599l-9.147-4.155a4.07 4.07 0 0 0-1.724-3.035l3.203-10.632c5.2 1.654 8.978 6.506 8.978 12.223zm-25.788 0c0-7.076 5.784-12.834 12.894-12.834.553 0 1.094.047 1.63.115L30.943 18.07c-.042 0-.081-.013-.125-.013a4.094 4.094 0 0 0-4.096 4.084 4.095 4.095 0 0 0 4.096 4.083c1.52 0 2.832-.838 3.54-2.066l8.45 3.839c-2.352 3.164-6.114 5.227-10.362 5.227-7.11 0-12.894-5.757-12.894-12.833zm13.03 1.75a1.76 1.76 0 0 1-1.764 1.75 1.759 1.759 0 0 1-1.762-1.75c0-.965.79-1.75 1.762-1.75s1.763.785 1.763 1.75zM5.391 55.007a1.331 1.331 0 0 1-1.87.002 1.3 1.3 0 0 1 0-1.847l2.105-2.097L7.49 52.92l-2.097 2.089zm7.03 8.167a1.33 1.33 0 0 1-1.87.002 1.299 1.299 0 0 1 0-1.847l2.106-2.098.88.876.983.978-2.099 2.09zm7.616-7.588l-.003.003-3.86 3.85-.882-.877-.982-.977 3.857-3.84v-.001l.004-.002c.087-.088.142-.193.196-.297.015-.03.044-.056.057-.087.036-.09.042-.187.056-.281.007-.054.03-.104.03-.16 0-.077-.028-.153-.044-.23-.014-.07-.014-.141-.041-.209a1.167 1.167 0 0 0-.2-.3c-.022-.027-.03-.06-.054-.084h-.002s0-.003-.002-.004l-3.515-3.5c-.037-.038-.085-.053-.127-.084a1.116 1.116 0 0 0-.19-.127 1.084 1.084 0 0 0-.204-.07 1.12 1.12 0 0 0-.226-.044 1.133 1.133 0 0 0-.209.01c-.078.01-.151.02-.227.045a1.08 1.08 0 0 0-.206.098c-.044.024-.093.033-.133.063l-3.88 2.896-1.97-1.963 5.248-5.22 9.538 9.382-2.029 2.01zm14.917-15.349c-.034-.004-.066.008-.1.006a1.148 1.148 0 0 0-.252.015 1.076 1.076 0 0 0-.404.15 1.12 1.12 0 0 0-.181.134c-.028.024-.062.036-.088.064L23.653 51.862l-9.468-9.311 6.197-6.165a1.168 1.168 0 0 0-.83-1.993l-4.854.028.061-3.516 6.79.058a15.2 15.2 0 0 0 10.897 4.596c.957 0 1.89-.1 2.799-.268.087.07.174.14.283.185l5.272 2.1.333 1.66.39 1.936-6.569-.935zm8.84.39l-.685-3.408 3.164-2.363.828 1.1 1.242 1.65-4.55 3.02zm8.21-6.193l-1.832 1.718-2.037-2.705 1.818-1.394c.34-.261.768-.367 1.188-.313.422.06.796.28 1.05.622a1.562 1.562 0 0 1-.187 2.072z" fill="#212121"></path>
    <path d="M29.755 40.565l-4.688-4.667a1.166 1.166 0 0 0-1.646 0l-4.687 4.667a1.172 1.172 0 0 0 0 1.654l4.686 4.667a1.166 1.166 0 0 0 1.647 0l4.688-4.667a1.167 1.167 0 0 0 0-1.654zm-5.51 3.848l-3.034-3.02 3.033-3.021 3.035 3.02-3.035 3.02zm13.302-33.321l-.564 2.266c.156.039 3.801.988 3.801 4.7h2.334c0-4.412-3.644-6.486-5.571-6.966zm5.571 9.3h-2.334v2.333h2.334v-2.333z" fill="#212121"></path>
  </symbol>
  <symbol viewBox="0 0 70 70" fill="none" xmlns="http://www.w3.org/2000/svg" id="clock">
    <g clip-path="url(#clip0)">
      <path d="M68.461 33.471C68.458 14.982 53.466-.004 34.975 0 16.485.004 1.5 14.996 1.505 33.486A33.478 33.478 0 0 0 24.799 65.37c.133.042.27.063.41.063.263 0 .521-.071.748-.205.296-.175.516-.453.62-.78l8.454-26.797a4.184 4.184 0 1 0-1.837-7.95L22.025 18.53a1.395 1.395 0 0 0-1.972 1.973l11.163 11.176a4.104 4.104 0 0 0 1.174 5.051l-8.056 25.535C8.414 56.4.262 38.74 6.126 22.82 11.991 6.9 29.65-1.252 45.571 4.613c15.92 5.864 24.072 23.524 18.207 39.444A30.721 30.721 0 0 1 47.455 61.5l-.87-4.1a1.395 1.395 0 0 0-2.294-.752l-8.393 7.494a1.394 1.394 0 0 0 .505 2.372l10.716 3.42a1.394 1.394 0 0 0 1.791-1.619l-.855-4.022a33.37 33.37 0 0 0 20.406-30.82zm-33.478-1.394a1.395 1.395 0 1 1 0 2.79 1.395 1.395 0 0 1 0-2.79zm4.594 32.515l4.778-4.262 1.319 6.213-6.097-1.951z" fill="#212121"></path>
      <path d="M33.588 6.967v2.79a1.395 1.395 0 1 0 2.79 0v-2.79a1.395 1.395 0 0 0-2.79 0zM8.479 32.077a1.395 1.395 0 0 0 0 2.79h2.79a1.395 1.395 0 1 0 0-2.79h-2.79zm53.007 2.79a1.395 1.395 0 1 0 0-2.79h-2.79a1.395 1.395 0 0 0 0 2.79h2.79z" fill="#2196F3"></path>
    </g>
    <defs>
      <clipPath id="clip0">
        <path fill="#fff" d="M0 0h70v70H0z"></path>
      </clipPath>
    </defs>
  </symbol>
  <symbol viewBox="0 0 70 70" fill="none" xmlns="http://www.w3.org/2000/svg" id="diagram">
    <g clip-path="url(#clip0)">
      <path d="M32.65 32.735h2.332V43.23H32.65V32.735zm9.328 4.665h2.332v5.83h-2.332V37.4zm-18.657 3.498h2.332v2.332h-2.332v-2.332zm-6.996-1.167h2.332v3.498h-2.332v-3.498z" fill="#2196F3"></path>
      <path d="M3.498 61.886h55.97a3.498 3.498 0 0 0 3.499-3.498v-4.664a3.498 3.498 0 0 0-3.498-3.498h-1.166v-29.08l6.623-6.274a3.518 3.518 0 1 0-1.633-1.668l-4.99 4.73v-2.69a3.498 3.498 0 0 0-3.498-3.498H8.162a3.498 3.498 0 0 0-3.498 3.498v34.982H3.498A3.498 3.498 0 0 0 0 53.724v4.664a3.498 3.498 0 0 0 3.498 3.498zM66.465 10.58a1.166 1.166 0 1 1 0 2.332 1.166 1.166 0 0 1 0-2.332zM6.996 15.244c0-.644.522-1.166 1.166-1.166h46.643c.644 0 1.166.522 1.166 1.166v4.897l-2.332 2.216v-4.78c0-.645-.523-1.167-1.167-1.167H10.495c-.644 0-1.167.522-1.167 1.166v29.152c0 .644.523 1.166 1.167 1.166h41.977c.645 0 1.167-.522 1.167-1.166V25.565l2.332-2.21v26.87H6.996v-34.98zm10.495 15.159a3.498 3.498 0 1 0 2.422 6.012l4.053 2.034a1.167 1.167 0 0 0 1.392-.268l8.616-9.694 8.47 6.347c.455.34 1.089.304 1.501-.086l7.361-6.973v17.787H11.661v-26.82h39.645v5.82l-8.25 7.813-8.54-6.403a1.167 1.167 0 0 0-1.572.157l-8.734 9.828-3.265-1.633c.023-.14.038-.281.044-.423a3.498 3.498 0 0 0-3.498-3.498zm1.166 3.498a1.166 1.166 0 1 1-2.332 0 1.166 1.166 0 0 1 2.332 0zm6.996 18.657h11.66v1.166c0 .644-.521 1.166-1.165 1.166h-9.329a1.166 1.166 0 0 1-1.166-1.166v-1.166zm-23.32 1.166c0-.644.521-1.166 1.165-1.166h19.823v1.166a3.498 3.498 0 0 0 3.498 3.498h9.329a3.498 3.498 0 0 0 3.498-3.498v-1.166h19.823c.644 0 1.166.522 1.166 1.166v4.664c0 .644-.522 1.166-1.166 1.166H3.499a1.166 1.166 0 0 1-1.167-1.166v-4.664z" fill="#212121"></path>
    </g>
    <defs>
      <clipPath id="clip0">
        <path fill="#fff" d="M0 0h70v70H0z"></path>
      </clipPath>
    </defs>
  </symbol>
  <symbol xmlns="http://www.w3.org/2000/svg" viewBox="0 0 1365 1024" id="envelope">
    <title>twitter</title>
    <path d="M1237.333 0H128.001C57.417 0 0 57.417 0 128.001V896c0 70.579 57.417 128 128.001 128h1109.332c70.579 0 128-57.421 128-128V128.001c0-70.584-57.421-128.001-128-128.001zm0 85.333c5.794 0 11.307 1.203 16.35 3.303L682.666 583.542 111.643 88.636c5.042-2.097 10.557-3.303 16.354-3.303h1109.335zm0 853.334H128.001c-23.541 0-42.668-19.123-42.668-42.667V178.791l569.375 493.458c8.043 6.956 18 10.417 27.959 10.417s19.916-3.457 27.959-10.417l569.375-493.458V896c0 23.543-19.123 42.667-42.667 42.667z"></path>
  </symbol>
  <symbol xmlns="http://www.w3.org/2000/svg" viewBox="0 0 1024 1024" id="facebook">
    <title>twitter</title>
    <path d="M682.537 170.026h93.486V7.21C759.895 4.991 704.425-.001 639.831-.001c-134.786 0-227.117 84.778-227.117 240.598v143.402H263.978v182.016h148.736v457.984h182.358V566.056h142.72l22.656-182.014H595.031V258.645c.041-52.608 14.208-88.619 87.506-88.619z"></path>
  </symbol>
  <symbol xmlns="http://www.w3.org/2000/svg" viewBox="0 0 1024 1024" id="instagram">
    <title>twitter</title>
    <path d="M1022.996 301.059c-2.396-54.409-11.197-91.814-23.803-124.227-13-34.405-33.004-65.208-59.213-90.814-25.605-26.006-56.612-46.212-90.619-59.012C816.762 14.402 779.55 5.603 725.14 3.204 670.325.602 652.922 0 513.899 0c-139.028 0-156.43.602-211.043 3.001-54.409 2.399-91.814 11.205-124.219 23.802-34.413 13.003-65.215 33.007-90.822 59.215-26.005 25.606-46.204 56.612-59.011 90.619C16.2 209.245 7.401 246.448 5.002 300.857 2.4 355.672 1.798 373.074 1.798 512.104c0 139.023.602 156.426 3.001 211.041 2.399 54.405 11.205 91.812 23.809 124.227 13.002 34.401 33.202 65.208 59.207 90.813 25.607 26.004 56.612 46.213 90.619 59.013 32.608 12.6 69.81 21.402 124.227 23.798 54.604 2.406 72.014 3 211.043 3 139.023 0 156.426-.594 211.041-3 54.405-2.396 91.812-11.197 124.216-23.798a261.946 261.946 0 0 0 149.837-149.827c12.595-32.609 21.402-69.821 23.798-124.227 2.401-54.615 3-72.018 3-211.041 0-139.03-.2-156.431-2.601-211.044zM930.785 719.14c-2.207 50.012-10.604 77.015-17.608 95.017-17.203 44.611-52.613 80.015-97.219 97.224-18.007 7.004-45.204 15.401-95.022 17.597-54.011 2.406-70.205 3-206.838 3-136.626 0-153.028-.594-206.843-3-50.01-2.196-77.015-10.593-95.018-17.597-22.2-8.202-42.407-21.207-58.808-38.211-17.004-16.604-30.006-36.608-38.211-58.808-7.002-18.002-15.401-45.21-17.597-95.017-2.406-54.011-3-70.216-3-206.848 0-136.626.594-153.028 3-206.835 2.196-50.01 10.596-77.015 17.597-95.018 8.205-22.207 21.207-42.407 38.414-58.817 16.597-17.003 36.601-30.006 58.808-38.203 18.003-7.001 45.212-15.401 95.018-17.605 54.01-2.399 70.217-3.001 206.839-3.001 136.827 0 153.027.602 206.843 3.001 50.007 2.203 77.015 10.604 95.017 17.605 22.2 8.197 42.409 21.2 58.808 38.203 17.004 16.605 30.008 36.609 38.211 58.817 7.004 18.003 15.401 45.204 17.608 95.018 2.396 54.01 3 70.209 3 206.835 0 136.632-.604 152.632-3 206.643z"></path>
    <path d="M513.9 249.047c-145.224 0-263.052 117.82-263.052 263.05 0 145.234 117.828 263.05 263.052 263.05 145.229 0 263.05-117.816 263.05-263.05 0-145.23-117.821-263.05-263.05-263.05zm0 433.685c-94.214 0-170.635-76.411-170.635-170.634 0-94.221 76.421-170.634 170.635-170.634 94.223 0 170.634 76.413 170.634 170.634 0 94.223-76.411 170.634-170.634 170.634zm334.868-444.084c0 33.913-27.494 61.41-61.414 61.41-33.915 0-61.414-27.497-61.414-61.41 0-33.921 27.5-61.411 61.414-61.411 33.92 0 61.414 27.49 61.414 61.411z"></path>
  </symbol>
  <symbol xmlns="http://www.w3.org/2000/svg" viewBox="0 0 1024 1024" id="linkedin">
    <title>twitter</title>
    <path d="M1023.744 1024v-.041h.256V648.407c0-183.722-39.552-325.247-254.336-325.247-103.255 0-172.544 56.661-200.832 110.378h-2.985v-93.226h-203.65v683.647h212.051V685.44c0-89.129 16.896-175.315 127.278-175.315 108.754 0 110.377 101.715 110.377 181.034V1024h211.84zM16.896 340.35h212.309V1024H16.896V340.35zM122.966 0C55.083 0 0 55.082 0 122.966s55.082 124.117 122.966 124.117c67.882 0 122.965-56.234 122.965-124.117C245.889 55.083 190.806 0 122.966 0z"></path>
  </symbol>
  <symbol xmlns="http://www.w3.org/2000/svg" viewBox="0 0 922 1024" id="logo-1">
    <title>twitter</title>
    <path d="M122.88 0l149.66 141.68h417.481V536.9l149.66 141.681V.001h-716.8z"></path>
    <path d="M0 135.71v659.195h696.32V532.88L276.953 135.874 0 135.711zm563.673 562.771H110.184V255.138h32.056v413.323h421.433v30.02zM200.52 917.17l16.75-34.501h14l-24.4 46v26.8h-12.7v-26.8l-24.45-46h14.05l16.75 34.501zm71.901 21.351H244.22l-5.9 16.949h-13.15l27.501-72.8h11.35l27.55 72.8h-13.199l-5.949-16.949zm-24.652-10.202h21.101l-10.549-30.2-10.551 30.2zm74.5 7.5c0-3.367.918-6.449 2.75-9.249 1.833-2.834 5.45-6.183 10.85-10.05-2.832-3.568-4.817-6.601-5.949-9.101-1.1-2.501-1.651-4.917-1.651-7.25 0-5.7 1.733-10.199 5.2-13.5 3.467-3.332 8.135-4.999 14-4.999 5.3 0 9.634 1.567 13.001 4.7 3.4 3.101 5.1 6.949 5.1 11.551 0 3.033-.766 5.833-2.3 8.399-1.534 2.533-4.051 5.067-7.551 7.6l-4.95 3.6 14.051 16.599c2.034-4 3.049-8.45 3.049-13.349h10.549c0 8.966-2.099 16.316-6.3 22.049l10.701 12.65h-14.1l-4.1-4.85c-5.2 3.899-11.399 5.849-18.6 5.849s-12.966-1.898-17.299-5.7c-4.301-3.834-6.451-8.817-6.451-14.95zm24.101 10.951c4.1 0 7.934-1.366 11.5-4.1l-15.899-18.749-1.55 1.1c-4 3.033-6.001 6.5-6.001 10.4 0 3.367 1.083 6.101 3.25 8.2s5.067 3.15 8.7 3.15zm-6.701-46.899c0 2.8 1.718 6.316 5.151 10.549l5.55-3.799 1.55-1.251c2.066-1.833 3.101-4.182 3.101-7.049 0-1.901-.717-3.516-2.15-4.85-1.434-1.368-3.25-2.05-5.45-2.05-2.367 0-4.252.799-5.65 2.4-1.401 1.599-2.101 3.615-2.101 6.05zm132.252 31.899c-.733 7.766-3.6 13.832-8.602 18.201-4.999 4.332-11.649 6.498-19.95 6.498-5.8 0-10.916-1.366-15.35-4.1-4.399-2.765-7.799-6.683-10.199-11.749s-3.652-10.951-3.75-17.65v-6.799c0-6.867 1.217-12.917 3.65-18.151s5.917-9.265 10.449-12.1c4.567-2.832 9.834-4.25 15.8-4.25 8.034 0 14.5 2.183 19.401 6.55 4.899 4.366 7.75 10.533 8.55 18.5h-12.601c-.6-5.233-2.132-8.999-4.6-11.299-2.433-2.335-6.017-3.5-10.75-3.5-5.499 0-9.732 2.017-12.7 6.05-2.933 4-4.434 9.884-4.499 17.65v6.449c0 7.868 1.399 13.867 4.2 18.002 2.832 4.133 6.965 6.199 12.399 6.199 4.966 0 8.7-1.116 11.201-3.351 2.501-2.232 4.084-5.949 4.749-11.149h12.601zm69.449-10.801c0 7.133-1.233 13.4-3.701 18.801-2.466 5.368-6.001 9.501-10.6 12.401-4.565 2.865-9.832 4.299-15.798 4.299-5.9 0-11.168-1.434-15.8-4.299-4.6-2.9-8.167-7.016-10.701-12.351-2.501-5.333-3.766-11.483-3.799-18.448v-4.1c0-7.1 1.249-13.367 3.75-18.801 2.533-5.433 6.083-9.583 10.65-12.45 4.6-2.9 9.867-4.35 15.8-4.35s11.182 1.434 15.749 4.301c4.6 2.832 8.151 6.932 10.65 12.298 2.501 5.335 3.768 11.551 3.801 18.651v4.049zm-12.65-3.799c0-8.067-1.534-14.25-4.6-18.551-3.033-4.299-7.35-6.449-12.95-6.449-5.468 0-9.751 2.15-12.851 6.449-3.066 4.268-4.633 10.318-4.7 18.151v4.198c0 8.002 1.55 14.184 4.651 18.551 3.133 4.366 7.467 6.55 13.001 6.55 5.599 0 9.9-2.132 12.898-6.4 3.035-4.266 4.551-10.5 4.551-18.7v-3.799z"></path>
  </symbol>
  <symbol xmlns="http://www.w3.org/2000/svg" viewBox="0 0 788 1024" id="logo-2">
    <title>twitter</title>
    <path d="M334.316 57.787h2.69c4.982 0 10.362.501 15.693.952a445.55 445.55 0 0 1 69.742 10.516V12.87a415.285 415.285 0 0 0-71.985-11.467C341.24.702 331.427.251 321.365.001h-8.42a586.658 586.658 0 0 0-144.466 18.628A585.405 585.405 0 0 0 15.195 80.973V640.17a622.97 622.97 0 0 1 146.111-56.936 637.275 637.275 0 0 1 122.646-18.828h1.644a481.89 481.89 0 0 1 20.972-.603v-57.285a675.993 675.993 0 0 0-159.411 21.181c-19.279 5.008-37.91 10.415-55.396 16.425l-19.926 6.76V114.873l8.519-4.106a556.797 556.797 0 0 1 207.085-52.83 12.208 12.208 0 0 1 1.794 0c7.92-.401 15.892-.601 23.712-.601h8.968c4.135.1 8.269.2 12.404.451z"></path>
    <path d="M474.797 116.826c-13.101 0-26.053-.451-38.558-1.402-14.944-1.102-30.289-2.904-44.833-5.358-8.867-1.502-17.585-3.305-26.055-5.258v552.787a441.237 441.237 0 0 0 109.596 12.92 589.615 589.615 0 0 0 144.467-18.58 587.102 587.102 0 0 0 153.334-62.344V40.36a625.731 625.731 0 0 1-146.062 56.986 619.653 619.653 0 0 1-151.889 19.48zm221.035 9.565l19.927-6.71v436.16l-8.519 4.106a546.635 546.635 0 0 1-101.874 36.606 529.356 529.356 0 0 1-130.369 16.874c-13.151 0-26.203-.549-38.857-1.652l-13.649-1.201V162.045l15.892 1.052c11.557.751 23.513 1.102 36.515 1.102a674.693 674.693 0 0 0 165.537-21.232 876.809 876.809 0 0 0 55.396-16.575zM53.901 831.26c-2.865-2.972-6.318-5.305-10.137-6.849s-7.918-2.265-12.031-2.115A32.942 32.942 0 0 0 18.93 824.7a29.551 29.551 0 0 0-9.963 6.56 28.804 28.804 0 0 0-6.426 10.016 32.512 32.512 0 0 0-2.292 12.369v74.713a35.212 35.212 0 0 0 2.939 15.323 30.068 30.068 0 0 0 7.472 10.016 26.173 26.173 0 0 0 10.262 5.309 41.692 41.692 0 0 0 11.159 1.552 27.969 27.969 0 0 0 12.056-2.603 31.481 31.481 0 0 0 9.963-6.912 32.472 32.472 0 0 0 6.526-10.016 30.174 30.174 0 0 0 2.391-11.918v-8.361H43.489v6.66a17.349 17.349 0 0 1-1.146 6.66 11.969 11.969 0 0 1-2.84 4.206 11.917 11.917 0 0 1-4.085 2.152 13.749 13.749 0 0 1-4.085.701 9.9 9.9 0 0 1-5.119-.764 9.97 9.97 0 0 1-4.047-3.241 17.695 17.695 0 0 1-2.59-10.016V857.45c-.121-3.862.7-7.696 2.391-11.166 1.014-1.577 2.448-2.836 4.139-3.633s3.571-1.101 5.425-.874c1.683-.059 3.356.291 4.874 1.024s2.837 1.825 3.844 3.182a15.882 15.882 0 0 1 3.238 10.016v6.459h19.329v-7.611a35.216 35.216 0 0 0-2.391-13.07 30.763 30.763 0 0 0-6.526-10.516zm116.022-.853a34.766 34.766 0 0 0-22.218-8.212 34.164 34.164 0 0 0-11.657 2.103 31.637 31.637 0 0 0-10.312 6.109 30.704 30.704 0 0 0-7.572 10.466 34.85 34.85 0 0 0-2.839 14.472v71.658a34.573 34.573 0 0 0 2.839 14.673 29.095 29.095 0 0 0 7.572 10.014 30.516 30.516 0 0 0 10.312 6.311 34.189 34.189 0 0 0 11.657 2.103 33.772 33.772 0 0 0 11.657-2.103 32.622 32.622 0 0 0 10.561-6.311 30.574 30.574 0 0 0 7.373-10.014 34.557 34.557 0 0 0 2.839-14.673v-71.658a34.866 34.866 0 0 0-2.839-14.472 32.345 32.345 0 0 0-7.373-10.466zm-9.117 96.597a12.85 12.85 0 0 1-3.886 10.366c-2.579 2.162-5.832 3.348-9.191 3.348s-6.612-1.185-9.191-3.348c-1.377-1.327-2.442-2.946-3.114-4.74s-.936-3.716-.772-5.626v-71.658a12.865 12.865 0 0 1 3.886-10.366c2.579-2.162 5.832-3.348 9.191-3.348s6.612 1.185 9.191 3.348c1.377 1.325 2.442 2.946 3.114 4.74s.936 3.716.772 5.626v71.658zm161.504 32V823.35h-18.781l-24.659 71.808h-.349l-24.858-71.808h-18.582v135.654h19.377v-82.525h.349l18.981 58.338h9.663l19.131-58.338h.349v82.525h19.377zm110.094-126.143a26.888 26.888 0 0 0-10.959-7.412 43 43 0 0 0-14.048-2.103h-28.794v135.656h19.328v-52.98h9.964a35.38 35.38 0 0 0 17.436-3.706 28.174 28.174 0 0 0 10.61-10.366 32.443 32.443 0 0 0 4.435-11.817 96.492 96.492 0 0 0 1.046-15.423 77.37 77.37 0 0 0-1.894-19.379 28.854 28.854 0 0 0-7.123-12.469zm-9.965 41.361a17.1 17.1 0 0 1-1.792 7.062 10.884 10.884 0 0 1-4.982 4.756 19.797 19.797 0 0 1-9.116 1.703h-8.818v-46.119h9.962a18.564 18.564 0 0 1 8.72 1.701 10.973 10.973 0 0 1 4.533 5.008 19.856 19.856 0 0 1 1.694 7.562v9.013c0 3.155.199 6.41 0 9.314h-.201zm101.526-50.873h-15.84l-29.891 135.654h19.33l5.679-29.145h26.352l5.679 29.145h19.328l-30.637-135.654zm-17.833 88.033l9.515-49.174h.349l9.464 49.174h-19.328zm142.724-6.31h-.349l-29.194-81.723h-18.58v135.654h19.328V877.43h.398l29.54 81.573h18.184V823.349h-19.328v81.723zm118.112-81.723l-15.541 53.931h-.4l-15.541-53.931H715.01l26.553 78.318v57.336h19.328v-57.336l26.553-78.318h-20.476zM0 997.307h9.316v26.14h6.327v-26.14h9.266v-5.358H.001v5.358zm78.311-5.358l-12.205 31.498h6.725l2.59-7.16h12.554l2.69 7.16h6.875l-12.504-31.498h-6.725zm-.997 19.028l4.284-11.668 4.284 11.668h-8.568zm78.411.855h7.273v4.057a12.07 12.07 0 0 1-7.472 2.655 7.949 7.949 0 0 1-6.676-3.005 13.17 13.17 0 0 1-2.341-8.212c0-7.01 3.039-10.516 9.067-10.516 1.587-.16 3.177.26 4.484 1.178s2.243 2.276 2.64 3.828l6.227-1.201c-1.345-6.16-5.779-9.263-13.351-9.263a15.84 15.84 0 0 0-11.009 4.057c-1.587 1.566-2.815 3.462-3.598 5.555s-1.102 4.332-.936 6.561a17.183 17.183 0 0 0 4.035 11.819 15.246 15.246 0 0 0 11.956 4.606 18.917 18.917 0 0 0 13.351-5.008v-12.418h-13.65v5.307zm79.059-19.883h-6.376v31.498h22.069v-5.358h-15.693v-26.14zm66.853 0h-6.376v31.498h6.376v-31.498zm65.359 21.033l-12.902-21.033h-6.177v31.498h5.927v-20.58l12.654 20.58h6.327v-31.498h-5.829v21.033zm59.081-3.407h15.693v-5.358h-15.693v-6.91h16.888v-5.358h-23.264v31.498h23.912v-5.358h-17.536v-8.513zm143.271-5.206h-12.404v-12.42h-6.327v31.498h6.327v-13.771h12.404v13.771h6.327v-31.498h-6.327v12.42zm59.431 5.206h15.742v-5.358h-15.742v-6.91h16.937v-5.358h-23.264v31.498h23.863v-5.358h-17.536v-8.513zm80.603.002c5.48-.851 8.269-3.755 8.269-8.763a7.53 7.53 0 0 0-3.088-7.011 17.797 17.797 0 0 0-9.216-1.853h-13.351v31.498h6.327v-13.17h1.245a8.5 8.5 0 0 1 3.936.701 6.601 6.601 0 0 1 2.241 2.304l6.875 10.016h7.572l-3.836-6.16a21.95 21.95 0 0 0-6.973-7.562zm-6.376-4.356h-4.683v-7.912h4.982c2.17-.175 4.354.079 6.426.75a4.12 4.12 0 0 1 1.384 3.279c-.03.614-.195 1.217-.486 1.759s-.701 1.012-1.197 1.373c-2.08.638-4.256.892-6.426.752zm67.15 4.354h15.693v-5.358h-15.693v-6.91h16.937v-5.358h-23.314v31.498h23.912v-5.358h-17.536v-8.513z"></path>
  </symbol>
  <symbol xmlns="http://www.w3.org/2000/svg" viewBox="0 0 976 1024" id="logo-3">
    <title>twitter</title>
    <path d="M151.111 995.295c.358.01.71.086 1.036.226s.619.341.863.591l4.9 5.137c-3.804 4.156-8.505 7.482-13.782 9.747a49.4 49.4 0 0 1-19.54 3.501 47.886 47.886 0 0 1-18.376-3.267c-5.255-2.093-9.975-5.239-13.843-9.223-3.947-4.132-6.988-8.973-8.943-14.241a51.507 51.507 0 0 1-3.124-18.268 48.022 48.022 0 0 1 3.369-18.327c2.14-5.301 5.367-10.142 9.494-14.243 4.183-4.017 9.186-7.175 14.701-9.28a53.059 53.059 0 0 1 18.927-3.267 46.86 46.86 0 0 1 17.58 2.977 46.488 46.488 0 0 1 13.169 8.23l-4.104 5.487a4.11 4.11 0 0 1-1.041.991 2.602 2.602 0 0 1-1.654.41 3.743 3.743 0 0 1-1.776-.583l-2.205-1.46-3.063-1.867a33.316 33.316 0 0 0-4.104-1.81 40.03 40.03 0 0 0-5.574-1.46 39.023 39.023 0 0 0-7.289-.583 36.498 36.498 0 0 0-13.598 2.45 30.719 30.719 0 0 0-10.658 6.889 31.977 31.977 0 0 0-6.922 10.971 40.071 40.071 0 0 0-2.511 14.477 40.886 40.886 0 0 0 2.511 14.707 32.352 32.352 0 0 0 6.799 10.914c2.806 2.965 6.283 5.28 10.168 6.77a33.536 33.536 0 0 0 12.618 2.336c2.5.036 4.999-.119 7.473-.467a27.787 27.787 0 0 0 11.332-3.91 37.291 37.291 0 0 0 4.839-3.62 3.646 3.646 0 0 1 2.328-.934zm141.493-25.81a48.307 48.307 0 0 1-3.308 18.151c-1.996 5.265-5.141 10.069-9.226 14.093-4.086 4.025-9.021 7.178-14.479 9.252a54.674 54.674 0 0 1-37.241 0c-5.423-2.108-10.325-5.268-14.394-9.28-4.083-4.096-7.251-8.94-9.31-14.238a51.601 51.601 0 0 1 0-36.362c2.089-5.301 5.253-10.159 9.31-14.298 4.104-3.886 9.004-6.925 14.394-8.928a53.76 53.76 0 0 1 37.241 0c5.441 2.105 10.364 5.265 14.455 9.278 4.034 4.058 7.178 8.84 9.249 14.065a48.662 48.662 0 0 1 3.308 18.268zm-12.861 0a41.896 41.896 0 0 0-2.329-14.591 30.41 30.41 0 0 0-6.554-10.912c-2.872-3.001-6.408-5.351-10.352-6.887a39.479 39.479 0 0 0-27.073 0c-3.944 1.536-7.48 3.886-10.352 6.887-2.991 3.151-5.246 6.87-6.615 10.912a46.704 46.704 0 0 0 0 29.182 30.146 30.146 0 0 0 6.615 10.914c2.876 2.982 6.412 5.313 10.352 6.827a40.445 40.445 0 0 0 27.073 0c3.941-1.515 7.478-3.846 10.352-6.827a30.888 30.888 0 0 0 6.554-10.914 41.531 41.531 0 0 0 2.329-14.591zm109.396 15.298l1.286 3.267c.491-1.167.919-2.217 1.41-3.267a30.603 30.603 0 0 1 1.593-3.21l31.299-54.21c.614-.934 1.165-1.517 1.777-1.693a7.684 7.684 0 0 1 2.574-.291h9.247v88.174h-10.964v-67.574a26.973 26.973 0 0 1 0-3.036l-31.482 54.972a4.822 4.822 0 0 1-1.843 2.005 5.138 5.138 0 0 1-2.691.736h-1.777c-.953.014-1.891-.238-2.696-.726s-1.443-1.188-1.836-2.015l-32.404-55.322v70.785h-10.595v-87.997h9.247c.869-.05 1.741.05 2.574.291.76.36 1.365.957 1.715 1.693l31.975 54.27a19.391 19.391 0 0 1 1.591 3.151zm117.791-4.382v33.03h-12.252v-88.057h27.319c5.158-.093 10.3.555 15.253 1.927a29.202 29.202 0 0 1 10.781 5.484c2.72 2.386 4.818 5.341 6.125 8.637a28.696 28.696 0 0 1 2.081 11.262 27.297 27.297 0 0 1-2.265 11.262 24.113 24.113 0 0 1-6.616 8.811 30.272 30.272 0 0 1-10.842 5.837 47.51 47.51 0 0 1-14.762 2.041l-14.822-.233zm0-9.451h14.822a31.51 31.51 0 0 0 9.495-1.343 20.071 20.071 0 0 0 6.861-3.794 15.506 15.506 0 0 0 4.165-5.834 18.26 18.26 0 0 0 1.469-7.411 16.125 16.125 0 0 0-1.229-7.173 16.842 16.842 0 0 0-4.284-6.015c-4.679-3.482-10.557-5.168-16.477-4.727H506.93v36.297zm164.647 42.6h-9.678a4.323 4.323 0 0 1-2.696-.819 5.385 5.385 0 0 1-1.593-2.041l-8.33-21.302h-41.834l-8.637 21.302a4.745 4.745 0 0 1-1.531 1.984 4.312 4.312 0 0 1-2.758.876h-9.678l36.752-88.183h12.74l37.243 88.183zm-60.64-32.741h34.547l-14.579-35.892a62.071 62.071 0 0 1-2.758-8.287l-1.407 4.61a43.74 43.74 0 0 1-1.348 3.736l-14.455 35.833zm113.562-55.032a5.308 5.308 0 0 1 1.838 1.576l53.596 66.472v-68.458h10.964v88.183h-6.125a5.488 5.488 0 0 1-2.51-.526 6.732 6.732 0 0 1-1.96-1.634l-53.536-66.412c.06 1.01.06 2.022 0 3.034v65.539h-10.964v-88.183h6.494a5.348 5.348 0 0 1 2.203.41zm156.686 52.7v35.016h-12.252v-35.016l-33.873-53.105h10.966a4.116 4.116 0 0 1 2.634.757 7.491 7.491 0 0 1 1.653 1.984l21.194 34.259c.857 1.457 1.593 2.801 2.205 4.084s1.103 2.51 1.531 3.736l1.593-3.794a30.992 30.992 0 0 1 2.081-4.027l20.887-34.492a9.027 9.027 0 0 1 1.593-1.867 3.839 3.839 0 0 1 2.634-.874h11.088l-33.935 53.338zM383.076 777.39c5.33.641 10.719 1.167 16.17 1.634 82.649-35.226 152.566-92.879 201.014-165.752 48.447-72.875 73.276-157.736 71.38-243.981l-91.084-86.778c18.52 91.822 9.857 186.742-25.019 274.141-34.878 87.4-94.591 163.828-172.461 220.736z"></path>
    <path d="M350.551 773.353l2.45.467c83.211-56.706 146.653-135.892 182.12-227.318 35.469-91.424 41.331-190.886 16.829-285.52L422.216 137.384c52.474 101.597 73.595 215.296 60.909 327.879-12.688 112.583-58.661 219.422-132.575 308.091zM790.53 471.185c-22.04 94.763-75.571 180.224-152.643 243.7-22.509 18.639-46.787 35.245-72.523 49.602 62.759-17.572 120.441-48.645 168.603-90.815 48.161-42.172 85.516-94.318 109.18-152.416l-52.617-50.071z"></path>
    <path d="M769.888 457.233l-74.914-71.373c-1.431 81.372-25.712 160.894-70.318 230.3-44.606 69.408-107.908 126.164-183.329 164.376h.367a446.76 446.76 0 0 0 50.29-2.86c70.485-27.41 132.749-71.016 181.241-126.931s81.701-122.397 96.663-193.512zM361.393 85.261L272.024 0C192.132 29.413 123.422 81.121 74.886 148.355S.249 295.217 0 376.818c.299 90.167 32.154 177.662 90.521 248.639s139.913 121.382 231.732 143.236c81.965-95.144 129.955-212.709 136.992-335.612 7.039-122.904-27.238-244.745-97.852-347.819zm614.979 358.845c-.324-106.977-45.073-209.486-124.471-285.131S664.909 40.697 552.624 40.389c-51.886-.051-103.331 9.071-151.723 26.903l547.173 521.307c18.734-46.082 28.331-95.077 28.298-144.494z"></path>
  </symbol>
  <symbol xmlns="http://www.w3.org/2000/svg" viewBox="0 0 1905 1024" id="logo-4">
    <title>twitter</title>
    <path d="M295.341 305.547h-.064c-53.877 0-97.549 42.558-97.549 95.058v.062c0 52.5 43.673 95.061 97.549 95.061h.064c53.874 0 97.547-42.56 97.547-95.061v-.062c0-52.5-43.672-95.058-97.547-95.058zm720.007-30.389c-.152-72.92-29.941-142.812-82.846-194.38S807.886.165 733.058-.001c-74.85.132-146.596 29.163-199.53 80.735-52.931 51.571-82.737 121.482-82.892 194.424v402.115s564.648-61.285 564.712-402.053v-.062zM-.002 809.253c.136 50.738 20.874 99.361 57.684 135.244s86.698 56.11 138.763 56.258c52.054-.148 101.932-20.366 138.739-56.234 36.809-35.871 57.556-84.478 57.708-135.206V529.518S-.002 572.193-.002 809.253zm196.447 50.131c-10.174 0-20.12-2.939-28.58-8.449-8.46-5.508-15.053-13.336-18.947-22.497s-4.912-19.239-2.927-28.965c1.985-9.726 6.884-18.658 14.079-25.669s16.361-11.786 26.339-13.719c9.979-1.934 20.322-.941 29.722 2.853s17.434 10.219 23.087 18.463c5.651 8.244 8.668 17.937 8.668 27.853.026 6.599-1.286 13.138-3.86 19.242s-6.358 11.652-11.138 16.329c-4.779 4.675-10.459 8.383-16.713 10.914s-12.959 3.834-19.731 3.834v-.188zm401.026-31.106h-40.186v41.512h-20.93V768.209h66.138v16.953h-45.208v26.233h40.186v16.882zm100.604-6.975c0 9.999-1.767 18.768-5.303 26.303-3.534 7.535-8.604 13.348-15.208 17.441-6.558 4.094-14.093 6.139-22.607 6.139-8.418 0-15.929-2.024-22.533-6.07-6.606-4.046-11.721-9.814-15.35-17.301-3.627-7.535-5.465-16.186-5.511-25.955v-5.022c0-9.999 1.791-18.792 5.372-26.372 3.627-7.63 8.721-13.467 15.279-17.513 6.604-4.094 14.138-6.139 22.604-6.139s15.977 2.046 22.535 6.139c6.604 4.046 11.697 9.883 15.279 17.513 3.627 7.58 5.441 16.348 5.441 26.303v4.534zm-21.209-4.606c0-10.65-1.907-18.744-5.722-24.278-3.813-5.534-9.254-8.302-16.324-8.302-7.023 0-12.443 2.743-16.255 8.232-3.815 5.441-5.744 13.441-5.792 24v4.953c0 10.371 1.907 18.418 5.72 24.14 3.815 5.72 9.304 8.58 16.465 8.58 7.025 0 12.419-2.743 16.186-8.232 3.767-5.534 5.675-13.581 5.722-24.14v-4.953zm89.093 26.443c0-3.953-1.395-6.977-4.186-9.071-2.791-2.138-7.813-4.372-15.069-6.696-7.256-2.372-13-4.698-17.234-6.977-11.533-6.232-17.301-14.629-17.301-25.186 0-5.489 1.534-10.373 4.603-14.653 3.117-4.325 7.559-7.697 13.326-10.116 5.815-2.417 12.326-3.627 19.535-3.627 7.256 0 13.722 1.326 19.396 3.977 5.675 2.605 10.069 6.301 13.186 11.093 3.162 4.791 4.744 10.233 4.744 16.327h-20.93c0-4.653-1.465-8.256-4.396-10.814-2.929-2.605-7.047-3.908-12.348-3.908-5.118 0-9.095 1.093-11.931 3.279-2.836 2.138-4.256 4.977-4.256 8.511 0 3.303 1.65 6.07 4.953 8.302 3.348 2.234 8.256 4.327 14.722 6.28 11.907 3.582 20.58 8.023 26.022 13.326 5.444 5.301 8.163 11.907 8.163 19.813 0 8.792-3.324 15.698-9.976 20.721-6.651 4.977-15.605 7.466-26.862 7.466-7.813 0-14.929-1.419-21.347-4.256-6.42-2.884-11.326-6.813-14.722-11.79-3.348-4.977-5.022-10.745-5.022-17.303h20.999c0 11.209 6.696 16.815 20.092 16.815 4.977 0 8.861-1 11.652-3.001 2.791-2.046 4.186-4.884 4.186-8.511zm111.697-57.977h-31.115v84.628h-20.93v-84.628h-30.699V768.21h82.744v16.953zm73.116 40.605h-40.186v27.21h47.164v16.813h-68.094V768.21h67.953v16.953h-47.023v24.209h40.186v16.396zm56.861 6.837h-16.675v37.185h-20.93V768.209h37.745c12 0 21.256 2.674 27.767 8.023s9.766 12.907 9.766 22.676c0 6.93-1.51 12.719-4.534 17.37-2.977 4.606-7.511 8.28-13.605 11.023l21.978 41.512v.976h-22.466l-19.046-37.185zm-16.675-16.953h16.884c5.256 0 9.326-1.326 12.209-3.977 2.884-2.698 4.325-6.396 4.325-11.093 0-4.791-1.372-8.559-4.115-11.302-2.698-2.746-6.861-4.117-12.488-4.117h-16.815v30.489zM1117.796 834v35.79h-20.93V768.209h39.626c7.63 0 14.326 1.395 20.094 4.186 5.813 2.791 10.278 6.768 13.395 11.928 3.117 5.118 4.675 10.954 4.675 17.513 0 9.954-3.42 17.813-10.257 23.581-6.789 5.722-16.208 8.583-28.255 8.583h-18.349zm0-16.953h18.696c5.537 0 9.745-1.303 12.629-3.908 2.931-2.605 4.396-6.325 4.396-11.162 0-4.977-1.465-9.002-4.396-12.071-2.929-3.07-6.975-4.651-12.138-4.744h-19.187v31.885zm132.418 8.721h-40.186v27.21h47.164v16.813h-68.094V768.21h67.953v16.953h-47.023v24.209h40.186v16.396zm97.118-40.605h-31.118v84.628h-20.93v-84.628h-30.696V768.21h82.744v16.953zm73.116 40.605h-40.186v27.21h47.161v16.813h-68.091V768.21h67.953v16.953h-47.023v24.209h40.186v16.396zm56.86 6.837h-16.675v37.185h-20.93V768.209h37.743c12 0 21.256 2.674 27.767 8.023 6.513 5.349 9.768 12.907 9.768 22.676 0 6.93-1.512 12.719-4.534 17.37-2.977 4.606-7.513 8.28-13.605 11.023l21.976 41.512v.976h-22.464l-19.046-37.185zm-16.674-16.953h16.884c5.256 0 9.326-1.326 12.209-3.977 2.881-2.698 4.325-6.396 4.325-11.093 0-4.791-1.372-8.559-4.117-11.302-2.696-2.746-6.858-4.117-12.488-4.117h-16.813v30.489zm122.999 27.488c0-3.953-1.395-6.977-4.186-9.071-2.791-2.138-7.813-4.372-15.069-6.696-7.256-2.372-13-4.698-17.232-6.977-11.535-6.232-17.303-14.629-17.303-25.186 0-5.489 1.536-10.373 4.606-14.653 3.115-4.325 7.559-7.697 13.326-10.116 5.813-2.417 12.324-3.627 19.535-3.627 7.256 0 13.719 1.326 19.394 3.977 5.675 2.605 10.071 6.301 13.186 11.093 3.162 4.791 4.744 10.233 4.744 16.327h-20.93c0-4.653-1.465-8.256-4.394-10.814-2.931-2.605-7.047-3.908-12.35-3.908-5.115 0-9.092 1.093-11.931 3.279-2.836 2.138-4.256 4.977-4.256 8.511 0 3.303 1.653 6.07 4.953 8.302 3.351 2.234 8.256 4.327 14.722 6.28 11.907 3.582 20.582 8.023 26.024 13.326 5.441 5.301 8.161 11.907 8.161 19.813 0 8.792-3.324 15.698-9.976 20.721-6.651 4.977-15.605 7.466-26.86 7.466-7.816 0-14.931-1.419-21.349-4.256-6.418-2.884-11.326-6.813-14.722-11.79-3.348-4.977-5.022-10.745-5.022-17.303h20.999c0 11.209 6.699 16.815 20.094 16.815 4.977 0 8.859-1 11.65-3.001 2.791-2.046 4.186-4.884 4.186-8.511z"></path>
  </symbol>
  <symbol xmlns="http://www.w3.org/2000/svg" viewBox="0 0 1285 1024" id="logo-5">
    <title>twitter</title>
    <path d="M97.773 855.755a34.169 34.169 0 0 1 7.537 22.018 34.933 34.933 0 0 1-2.683 15.242 34.83 34.83 0 0 1-8.996 12.571 50.512 50.512 0 0 1-33.949 10.159H0V776.198h58.46a49.765 49.765 0 0 1 32.388 9.27 31.893 31.893 0 0 1 8.733 11.715 32.003 32.003 0 0 1 2.606 14.395 32.402 32.402 0 0 1-6.79 21.338 31.686 31.686 0 0 1-17.789 10.907 33.925 33.925 0 0 1 20.166 11.931zM27.77 834.689h24.987a23.617 23.617 0 0 0 15.888-4.634c1.876-1.708 3.336-3.826 4.266-6.19s1.306-4.911 1.098-7.445c.176-2.525-.207-5.057-1.123-7.414s-2.341-4.482-4.173-6.22a24.095 24.095 0 0 0-16.363-4.704H27.771v36.607zm43.319 53.516c2.005-1.75 3.582-3.937 4.606-6.397s1.47-5.122 1.301-7.785a17.654 17.654 0 0 0-1.36-7.863 17.557 17.557 0 0 0-4.683-6.451 25.718 25.718 0 0 0-16.975-5.046H27.769v38.38h26.548a26.27 26.27 0 0 0 16.771-4.839zm146.185 27.541l-32.523-54.538h-12.222v54.538h-27.974V776.199h52.96a52.085 52.085 0 0 1 36.869 11.863 44.6 44.6 0 0 1 12.591 28.14 44.638 44.638 0 0 1-8.654 29.6 42.946 42.946 0 0 1-25.258 14.179l34.628 55.764h-30.418zm-44.745-73.556h22.882c15.888 0 23.832-7.046 23.832-21.134a20.822 20.822 0 0 0-1.279-8.456 20.824 20.824 0 0 0-4.56-7.225 24.722 24.722 0 0 0-17.993-5.658h-23.153l.271 42.472zm197.651 45.465h-55.745l-9.843 28.086H275.26l51.196-137.979h31.707l50.991 137.979h-29.33l-9.643-28.086zm-7.468-21.133l-20.369-58.9-20.369 58.9h40.738zm198.874 49.222h-27.77l-62.264-94.894v94.894H443.85V776.197h27.702l62.264 95.441v-95.441h27.77v139.547zm158.473-33.402a60.064 60.064 0 0 1-25.123 24.609 81.552 81.552 0 0 1-39.041 8.796h-49.431V776.2h49.431a83.138 83.138 0 0 1 39.041 8.591 59.038 59.038 0 0 1 25.123 24.336 81.402 81.402 0 0 1 8.693 36.607 81.404 81.404 0 0 1-8.693 36.609zm-31.776-3.34a51.253 51.253 0 0 0 12.284-33.302 51.245 51.245 0 0 0-12.284-33.302 48.153 48.153 0 0 0-34.764-11.863h-19.284v90.328h19.284a48.156 48.156 0 0 0 34.764-11.861zM387.562 0s358.433 135.865 350.829 332.471V665.01S380.228 529.077 387.697 332.471L387.562 0zm670.154 587.157c67.693-46.773 145.994-75.743 227.731-84.26V398.8c-94.18 36.444-174.073 102.526-227.731 188.357z"></path>
    <path d="M1017.046 618.518c55.407-112.013 151.458-198.449 268.401-241.529V77.035S774.99 270.574 785.785 550.553V1024s22.746-8.656 58.527-24.881c0-15.136 0-30.404 1.63-45.744 10.565-129.978 72.109-250.425 171.104-334.857z"></path>
    <path d="M968.499 794.4a490.078 490.078 0 0 1 17.857-96.94c-61.64 72.913-98.969 163.391-106.736 258.71-.747 8.998-1.155 17.996-1.357 27.269 28.992-13.977 62.736-31.428 98.18-51.947a491.843 491.843 0 0 1-7.944-137.092zm20.302 1.706a470.155 470.155 0 0 0 6.314 124.139c139.462-83.783 296.171-213.24 290.13-369.692v-13.634c-99.642 11.194-192.865 54.928-265.347 124.479a468.26 468.26 0 0 0-31.097 134.708z"></path>
  </symbol>
  <symbol xmlns="http://www.w3.org/2000/svg" viewBox="0 0 1981 1024" id="logo-6">
    <title>twitter</title>
    <path d="M995.962 475.343c-9.303-13.581-13.755-29.636-12.698-45.793v-66.397c0-20.353 4.21-35.82 12.626-46.401 8.419-10.583 22.88-15.852 43.38-15.805 19.262 0 32.937 4.501 41.022 13.508 8.82 11.491 13.112 25.542 12.128 39.716v15.603h-34.46v-15.805a88.21 88.21 0 0 0-.997-15.467c-.496-3.502-2.231-6.741-4.924-9.187-3.537-2.636-7.996-3.916-12.484-3.58-4.722-.334-9.403 1.015-13.127 3.782-3.003 2.711-5.002 6.262-5.708 10.131a84.1 84.1 0 0 0-1.356 16.415v80.578c-.543 7.776.977 15.554 4.423 22.628 1.714 2.393 4.094 4.292 6.876 5.483a17.382 17.382 0 0 0 8.891 1.271c4.414.345 8.795-.966 12.199-3.646 2.809-2.638 4.615-6.082 5.138-9.795a97.257 97.257 0 0 0 1.069-16.144v-16.344h34.46v14.926c.968 14.775-3.219 29.44-11.914 41.744-7.918 9.859-21.404 14.79-41.236 14.79-19.834 0-34.818-5.267-43.309-16.21zm143.476.677c-8.704-10.336-13.056-25.397-13.056-45.323v-69.839c0-19.723 4.352-34.651 13.056-44.782s23.258-15.175 43.662-15.128c20.262 0 34.745 5.042 43.449 15.128 8.704 10.131 13.127 25.059 13.127 44.782v69.839c0 19.723-4.423 34.854-13.27 45.254-8.846 10.403-23.258 15.603-43.306 15.603-20.046 0-34.887-5.267-43.662-15.534zm59.715-16.752c3.119-6.473 4.537-13.564 4.138-20.669v-85.508c.401-6.968-.995-13.922-4.067-20.264-1.747-2.444-4.187-4.374-7.037-5.567a17.48 17.48 0 0 0-9.087-1.187c-3.094-.41-6.249.007-9.109 1.2s-5.314 3.117-7.086 5.554c-3.137 6.324-4.559 13.288-4.138 20.264v85.914c-.432 7.108.988 14.207 4.138 20.669a21.379 21.379 0 0 0 7.268 5.122 22.46 22.46 0 0 0 8.855 1.814c3.056 0 6.075-.619 8.855-1.814a21.373 21.373 0 0 0 7.268-5.122v-.405zm81.971-156.284h37.1l27.895 128.859 28.538-128.859h36.1l3.64 185.994h-26.684l-2.854-129.264-27.539 129.264h-21.404l-28.538-129.736-2.638 129.736h-26.969l3.352-185.994zm174.868 0h57.787c33.293 0 49.94 17.604 49.94 52.814 0 33.723-17.526 50.561-52.58 50.517h-19.69v82.664h-35.673l.216-185.994zm49.368 79.489a25.82 25.82 0 0 0 10.492-.897 24.87 24.87 0 0 0 9.129-4.978c4.089-6.282 5.895-13.659 5.136-21.003a63.525 63.525 0 0 0-1.712-16.885 14.022 14.022 0 0 0-2.627-5.102 14.899 14.899 0 0 0-4.508-3.744 34.037 34.037 0 0 0-15.91-2.972h-13.84v55.581h13.84zm109.802-79.489h38.311l39.31 185.994h-33.247l-7.776-42.886h-34.175l-7.989 42.886h-33.745l39.31-185.994zm32.746 121.564l-13.341-78.071-13.341 78.071h26.682zm76.622-121.564h24.972l47.801 106.1v-106.1h29.607v185.994h-23.757l-48.086-110.759v110.759h-30.609l.071-185.994zm171.727 115.077l-39.738-114.817h33.46l24.258 73.752 22.757-73.752h32.748l-39.239 114.817v70.916h-34.246v-70.916zm-845.214 152.238v9.726h-29.108v75.578h-12.199v-75.578h-29.251v-9.726h70.558zm91.247 85.31h-9.416a3.93 3.93 0 0 1-2.64-.81 4.351 4.351 0 0 1-1.569-1.959l-8.419-20.262h-40.381l-8.419 20.262a5.712 5.712 0 0 1-1.284 2.297 4.076 4.076 0 0 1-2.64.81h-9.416l35.673-85.301h12.413l36.1 84.963zm-59.074-31.675h33.676l-14.269-34.716a66.04 66.04 0 0 1-2.64-8.036c-.499 1.621-.928 3.174-1.356 4.526l-1.284 3.58-14.127 34.647zm120.574 23.296c2.235.111 4.472.111 6.707 0a36.607 36.607 0 0 0 5.708-1.013 40.528 40.528 0 0 0 5.136-1.554c1.569-.608 3.139-1.351 4.782-2.093v-19.184h-14.269c-.354.02-.706-.031-1.037-.147s-.634-.296-.89-.528a1.97 1.97 0 0 1-.543-.701 1.888 1.888 0 0 1-.169-.853v-6.551h27.681v32.692a52.36 52.36 0 0 1-7.135 4.051 49.38 49.38 0 0 1-7.918 2.905 58.967 58.967 0 0 1-8.92 1.756 99.198 99.198 0 0 1-10.416.541 50.154 50.154 0 0 1-17.978-3.174c-5.343-2.035-10.195-5.067-14.269-8.918-3.971-3.889-7.099-8.479-9.203-13.508a46.14 46.14 0 0 1-3.283-17.697 47.994 47.994 0 0 1 3.212-17.833c2.05-5.055 5.185-9.655 9.203-13.51 4.072-3.838 8.927-6.847 14.269-8.849a55.08 55.08 0 0 1 19.12-3.174 65.41 65.41 0 0 1 9.917.744 45.434 45.434 0 0 1 8.49 2.162 39.285 39.285 0 0 1 7.135 3.377 50.411 50.411 0 0 1 6.206 4.459l-3.424 5.269a3.115 3.115 0 0 1-1.158 1.169 3.342 3.342 0 0 1-1.625.452 4.363 4.363 0 0 1-2.213-.677c-1.071-.539-2.211-1.215-3.495-2.026a30.435 30.435 0 0 0-4.782-2.297 41.621 41.621 0 0 0-6.563-1.89 50.284 50.284 0 0 0-9.06-.744 38.804 38.804 0 0 0-13.771 2.364c-3.969 1.507-7.549 3.813-10.487 6.754-2.956 3.068-5.216 6.678-6.636 10.605a43.475 43.475 0 0 0 0 28.438c1.563 4.011 3.991 7.669 7.135 10.739 2.927 2.927 6.478 5.229 10.416 6.756a36.797 36.797 0 0 0 14.127 1.687zm113.722-1.353h38.957v9.726h-50.871v-85.304h12.201l-.287 75.578zm79.48 9.726h-12.201v-85.304h12.201v85.304zm45.374-84.899a6 6 0 0 1 1.854 1.554l52.153 64.303a21.706 21.706 0 0 1 0-3.039v-63.559h10.63v85.646h-6.135a5.331 5.331 0 0 1-2.64-.472 6.985 6.985 0 0 1-1.926-1.623l-52.082-64.234v66.329h-10.202v-85.31h6.351c.688.002 1.369.14 1.997.405zm154.46-.405v9.387h-43.233v28.167h35.03v9.049h-35.03v29.113h43.233v9.387h-55.79v-85.103h55.79zM318.408 43.496l541.718 145.616v510.264L318.408 553.828V43.496zM283.664 0v578.616l611.137 164.325V164.393L283.664 0z"></path>
    <path d="M611.206 1011.538L0 847.075V268.522l611.206 164.394v578.622z"></path>
    <path d="M293.795 36.944l534.655 143.79-227.375 215.314L66.35 252.189 293.794 36.944zM283.664 0L0 268.535l611.206 164.39L894.798 164.39 283.664 0zm361.93 978.989L894.798 743.01l-249.204-67.065v303.044z"></path>
  </symbol>
</svg> 